<?xml version="1.0" encoding="UTF-8"?>
<svg id="raster" xmlns="http://www.w3.org/2000/svg" width="1000" height="1000" viewBox="0 0 1000 1000">
  <defs>
    <style>
      .cls-1 {
        fill: #fff;
      }
    </style>
  </defs>
  <polygon class="cls-1" points="500 3.57 459.48 55.54 471.68 278.25 500 337.64 528.32 278.25 540.52 55.54 500 3.57"/>
  <polygon class="cls-1" points="27.83 346.58 64.73 401.18 280.31 458.4 345.54 449.81 297.81 404.53 89.77 324.1 27.83 346.58"/>
  <polygon class="cls-1" points="208.2 901.63 271.53 883.4 392.56 696.06 404.56 631.36 346.74 662.76 205.96 835.77 208.2 901.63"/>
  <polygon class="cls-1" points="972.17 346.58 910.23 324.1 702.19 404.53 654.46 449.81 719.69 458.4 935.27 401.18 972.17 346.58"/>
  <polygon class="cls-1" points="791.8 901.63 794.04 835.77 653.26 662.76 595.44 631.36 607.44 696.06 728.47 883.4 791.8 901.63"/>
  <g>
    <path class="cls-1" d="m500,353.87c-.26,0-.52,0-.78,0,.51,0,1.02,0,1.52,0-.25,0-.5,0-.75,0Z"/>
    <path class="cls-1" d="m502.45,353.9c52.79,1.01,101.52,35.02,118.76,88.06,21.75,66.94-14.88,138.83-81.82,160.58-66.94,21.75-138.83-14.88-160.58-81.82-21.75-66.94,14.88-138.83,81.82-160.58,12.29-3.99,24.74-6.01,37.02-6.24-79.61,1.26-143.76,66.18-143.76,146.1s65.42,146.13,146.13,146.13,146.13-65.42,146.13-146.13-64.11-144.79-143.68-146.1Z"/>
    <path class="cls-1" d="m497.64,353.9c.53,0,1.06-.02,1.59-.02-.53,0-1.06.01-1.59.02Z"/>
    <path class="cls-1" d="m500.75,353.88c.57,0,1.13.01,1.7.02-.57-.01-1.13-.02-1.7-.02Z"/>
  </g>
  <g>
    <path class="cls-1" d="m744.92,255.08c25.75,25.75,47.01,54.92,63.44,86.96l42.17-16.3c-55.96-112.34-164.34-193.99-293.11-212.92l-2.47,45.14c27.41,4.36,54.13,11.98,79.87,22.87,41.24,17.44,78.29,42.42,110.11,74.25Z"/>
    <path class="cls-1" d="m255.08,255.08c31.82-31.82,68.87-56.8,110.11-74.25,25.74-10.89,52.46-18.51,79.87-22.87l-2.47-45.14c-128.78,18.93-237.15,100.57-293.11,212.92l42.17,16.3c16.42-32.04,37.69-61.21,63.44-86.96Z"/>
    <path class="cls-1" d="m153.63,500c0-18.05,1.38-35.89,4.09-53.45l-43.71-11.6c-3.54,21.16-5.38,42.89-5.38,65.05,0,109.46,44.94,208.42,117.37,279.45l28.54-35.08c-31.57-31.7-56.37-68.56-73.71-109.57-18.05-42.67-27.2-88.03-27.2-134.81Z"/>
    <path class="cls-1" d="m634.81,819.17c-42.67,18.05-88.03,27.2-134.81,27.2s-92.14-9.15-134.81-27.2c-7.41-3.13-14.67-6.52-21.81-10.13l-24.53,37.97c54.16,28.33,115.78,44.36,181.15,44.36s126.98-16.03,181.15-44.36l-24.53-37.97c-7.13,3.62-14.4,7-21.81,10.14Z"/>
    <path class="cls-1" d="m885.98,434.95l-43.71,11.6c2.71,17.56,4.09,35.39,4.09,53.45,0,46.78-9.15,92.14-27.2,134.81-17.34,41.01-42.15,77.86-73.71,109.56l28.54,35.08c72.43-71.03,117.37-169.99,117.37-279.45,0-22.16-1.85-43.89-5.38-65.05Z"/>
    <path class="cls-1" d="m776.39,500c0-11.91-.75-23.71-2.24-35.37l-21.49,5.7c1.13,9.73,1.73,19.63,1.73,29.66,0,16.96-1.67,33.53-4.84,49.56v-.03s-38.44,19.07-38.44,19.07l19.88,38.02.03-.02c-11.22,24.27-26.14,46.48-44.06,65.89l14.02,17.23c22.74-24.06,40.79-51.65,53.68-82.13,14.42-34.09,21.73-70.29,21.73-107.59Z"/>
    <path class="cls-1" d="m304.56,304.56c-18.78,18.79-34.57,39.87-47.16,62.9l20.74,8.02c13.08-23.25,29.72-44.22,49.16-62.21l42.23,7.15,6.26-42.43c22.84-12.81,47.84-22.21,74.34-27.48l-1.22-22.18c-19.34,3.61-38.23,9.28-56.5,17.01-32.91,13.92-62.47,33.85-87.85,59.22Z"/>
    <path class="cls-1" d="m630.48,320.42l42.23-7.15c19.44,17.99,36.08,38.96,49.15,62.21l20.74-8.02c-12.59-23.03-28.38-44.11-47.16-62.9-25.38-25.38-54.93-45.3-87.85-59.22-18.28-7.73-37.17-13.4-56.5-17.01l-1.22,22.18c26.5,5.27,51.51,14.67,74.35,27.48l6.26,42.42Z"/>
    <path class="cls-1" d="m470,752.62c-26.95-3.17-52.61-10.54-76.31-21.45l-12.05,18.66c3.55,1.68,7.14,3.3,10.77,4.84,34.09,14.42,70.29,21.73,107.59,21.73s73.5-7.31,107.59-21.73c3.63-1.54,7.22-3.16,10.77-4.84l-12.05-18.66c-23.7,10.92-49.36,18.28-76.31,21.45l-29.99-30.64-30,30.64Z"/>
    <path class="cls-1" d="m269,606.61l19.88-38.02-38.43-19.08v.03c-3.17-16.03-4.84-32.59-4.84-49.55,0-10.04.6-19.93,1.73-29.66l-21.49-5.7c-1.48,11.65-2.24,23.45-2.24,35.37,0,37.3,7.31,73.5,21.73,107.59,12.89,30.48,30.94,58.06,53.68,82.13l14.02-17.23c-17.92-19.41-32.84-41.63-44.06-65.9l.03.02Z"/>
  </g>
</svg>